<svg width="240" height="240" viewBox="0 0 240 240" fill="none" xmlns="http://www.w3.org/2000/svg">
<g clip-path="url(#clip0)">
<path d="M238.355 40.7C236.93 38.99 234.815 38 232.595 38H50.4982C48.1732 38 45.9683 39.08 44.5433 40.925C43.1333 42.7849 42.6533 45.1849 43.2533 47.4349L67.2529 137.133C68.1379 140.433 71.1079 142.698 74.4978 142.698C74.6178 142.698 74.7528 142.698 74.8728 142.683L217.971 135.483C221.436 135.303 224.345 132.769 224.975 129.349L239.975 46.8499C240.38 44.6449 239.78 42.3949 238.355 40.7Z" fill="#2CD8AE"/>
<path d="M187.497 112.5C183.357 112.5 179.997 109.14 179.997 105V75.0007C179.997 70.8608 183.357 67.5008 187.497 67.5008C191.637 67.5008 194.997 70.8608 194.997 75.0007V105C194.997 109.14 191.637 112.5 187.497 112.5Z" fill="#FAFAFA"/>
<path d="M142.498 112.5C138.358 112.5 134.998 109.14 134.998 105V75.0007C134.998 70.8608 138.358 67.5008 142.498 67.5008C146.638 67.5008 149.998 70.8608 149.998 75.0007V105C149.998 109.14 146.638 112.5 142.498 112.5Z" fill="#FAFAFA"/>
<path d="M97.4985 112.5C93.3585 112.5 89.9986 109.14 89.9986 105V75.0007C89.9986 70.8608 93.3585 67.5008 97.4985 67.5008C101.638 67.5008 104.998 70.8608 104.998 75.0007V105C104.998 109.14 101.638 112.5 97.4985 112.5Z" fill="#FAFAFA"/>
<path d="M97.4985 232.921C109.925 232.921 119.998 222.848 119.998 210.421C119.998 197.995 109.925 187.922 97.4985 187.922C85.0723 187.922 74.9988 197.995 74.9988 210.421C74.9988 222.848 85.0723 232.921 97.4985 232.921Z" fill="white"/>
<path d="M187.497 232.921C199.923 232.921 209.997 222.848 209.997 210.421C209.997 197.995 199.923 187.922 187.497 187.922C175.071 187.922 164.997 197.995 164.997 210.421C164.997 222.848 175.071 232.921 187.497 232.921Z" fill="white"/>
<path d="M202.497 172.922H82.4987C79.0938 172.922 76.1238 170.642 75.2538 167.357L36.6894 22.9243H7.49988C3.35995 22.9243 0 19.5643 0 15.4244C0 11.2845 3.35995 7.92453 7.49988 7.92453H42.4493C45.8543 7.92453 48.8242 10.2045 49.6942 13.4894L88.2586 157.922H202.497C206.637 157.922 209.997 161.282 209.997 165.422C209.997 169.562 206.637 172.922 202.497 172.922Z" fill="white"/>
</g>
<defs>
<clipPath id="clip0">
<rect width="240" height="240" fill="white"/>
</clipPath>
</defs>
</svg>
